<mxfile host="app.diagrams.net" agent="Mozilla/5.0 (Windows NT 10.0; Win64; x64) AppleWebKit/537.36 (KHTML, like Gecko) Chrome/138.0.0.0 Safari/537.36" version="28.1.1">
  <diagram name="Page-1" id="OteSbWdA2ZE-DIGd8uvN">
    <mxGraphModel dx="3842" dy="1295" grid="1" gridSize="10" guides="1" tooltips="1" connect="1" arrows="1" fold="1" page="1" pageScale="1" pageWidth="850" pageHeight="1100" math="0" shadow="0">
      <root>
        <mxCell id="0" />
        <mxCell id="1" parent="0" />
        <mxCell id="-Si1qEhgWz94pLlsSCn9-42" style="edgeStyle=orthogonalEdgeStyle;rounded=0;orthogonalLoop=1;jettySize=auto;html=1;" edge="1" parent="1" source="-Si1qEhgWz94pLlsSCn9-28" target="-Si1qEhgWz94pLlsSCn9-31">
          <mxGeometry relative="1" as="geometry" />
        </mxCell>
        <mxCell id="-Si1qEhgWz94pLlsSCn9-28" value="Application Component" style="html=1;outlineConnect=0;whiteSpace=wrap;fillColor=#99ffff;shape=mxgraph.archimate3.application;appType=comp;archiType=square;" vertex="1" parent="1">
          <mxGeometry x="120" y="160" width="150" height="75" as="geometry" />
        </mxCell>
        <mxCell id="-Si1qEhgWz94pLlsSCn9-30" value="Application Component" style="html=1;outlineConnect=0;whiteSpace=wrap;fillColor=#99ffff;shape=mxgraph.archimate3.application;appType=comp;archiType=square;" vertex="1" parent="1">
          <mxGeometry x="120" y="320" width="150" height="75" as="geometry" />
        </mxCell>
        <mxCell id="-Si1qEhgWz94pLlsSCn9-43" style="edgeStyle=orthogonalEdgeStyle;rounded=0;orthogonalLoop=1;jettySize=auto;html=1;" edge="1" parent="1" source="-Si1qEhgWz94pLlsSCn9-31" target="-Si1qEhgWz94pLlsSCn9-32">
          <mxGeometry relative="1" as="geometry" />
        </mxCell>
        <mxCell id="-Si1qEhgWz94pLlsSCn9-31" value="Application Service" style="html=1;outlineConnect=0;whiteSpace=wrap;fillColor=#99ffff;shape=mxgraph.archimate3.application;appType=serv;archiType=rounded" vertex="1" parent="1">
          <mxGeometry x="390" y="160" width="150" height="75" as="geometry" />
        </mxCell>
        <mxCell id="-Si1qEhgWz94pLlsSCn9-46" style="edgeStyle=orthogonalEdgeStyle;rounded=0;orthogonalLoop=1;jettySize=auto;html=1;" edge="1" parent="1" source="-Si1qEhgWz94pLlsSCn9-32" target="-Si1qEhgWz94pLlsSCn9-36">
          <mxGeometry relative="1" as="geometry" />
        </mxCell>
        <mxCell id="-Si1qEhgWz94pLlsSCn9-32" value="Business Resilience&lt;div&gt;Service&lt;/div&gt;" style="html=1;outlineConnect=0;whiteSpace=wrap;fillColor=#99ffff;shape=mxgraph.archimate3.application;appType=serv;archiType=rounded" vertex="1" parent="1">
          <mxGeometry x="660" y="160" width="150" height="75" as="geometry" />
        </mxCell>
        <mxCell id="-Si1qEhgWz94pLlsSCn9-33" value="Business Resilience&lt;div&gt;Workflow&lt;/div&gt;" style="html=1;outlineConnect=0;whiteSpace=wrap;fillColor=#99ffff;shape=mxgraph.archimate3.application;appType=serv;archiType=rounded" vertex="1" parent="1">
          <mxGeometry x="660" y="320" width="150" height="75" as="geometry" />
        </mxCell>
        <mxCell id="-Si1qEhgWz94pLlsSCn9-34" value="Business Resilience UI" style="html=1;outlineConnect=0;whiteSpace=wrap;fillColor=#99ffff;shape=mxgraph.archimate3.application;appType=serv;archiType=rounded" vertex="1" parent="1">
          <mxGeometry x="660" y="20" width="150" height="75" as="geometry" />
        </mxCell>
        <mxCell id="-Si1qEhgWz94pLlsSCn9-36" value="Application Component" style="html=1;outlineConnect=0;whiteSpace=wrap;fillColor=#99ffff;shape=mxgraph.archimate3.application;appType=comp;archiType=square;" vertex="1" parent="1">
          <mxGeometry x="1440" y="160" width="150" height="75" as="geometry" />
        </mxCell>
        <mxCell id="-Si1qEhgWz94pLlsSCn9-37" value="Application Component" style="html=1;outlineConnect=0;whiteSpace=wrap;fillColor=#99ffff;shape=mxgraph.archimate3.application;appType=comp;archiType=square;" vertex="1" parent="1">
          <mxGeometry x="1460" y="320" width="150" height="75" as="geometry" />
        </mxCell>
        <mxCell id="-Si1qEhgWz94pLlsSCn9-39" value="" style="edgeStyle=orthogonalEdgeStyle;rounded=0;orthogonalLoop=1;jettySize=auto;html=1;" edge="1" parent="1" source="-Si1qEhgWz94pLlsSCn9-38" target="-Si1qEhgWz94pLlsSCn9-28">
          <mxGeometry relative="1" as="geometry" />
        </mxCell>
        <mxCell id="-Si1qEhgWz94pLlsSCn9-38" value="Actor" style="shape=umlActor;verticalLabelPosition=bottom;verticalAlign=top;html=1;outlineConnect=0;" vertex="1" parent="1">
          <mxGeometry x="20" y="220" width="30" height="60" as="geometry" />
        </mxCell>
        <mxCell id="-Si1qEhgWz94pLlsSCn9-41" style="edgeStyle=orthogonalEdgeStyle;rounded=0;orthogonalLoop=1;jettySize=auto;html=1;entryX=0;entryY=0.5;entryDx=0;entryDy=0;entryPerimeter=0;" edge="1" parent="1" source="-Si1qEhgWz94pLlsSCn9-38" target="-Si1qEhgWz94pLlsSCn9-30">
          <mxGeometry relative="1" as="geometry" />
        </mxCell>
        <mxCell id="-Si1qEhgWz94pLlsSCn9-44" style="edgeStyle=orthogonalEdgeStyle;rounded=0;orthogonalLoop=1;jettySize=auto;html=1;entryX=0.5;entryY=0;entryDx=0;entryDy=0;entryPerimeter=0;" edge="1" parent="1" source="-Si1qEhgWz94pLlsSCn9-34" target="-Si1qEhgWz94pLlsSCn9-32">
          <mxGeometry relative="1" as="geometry" />
        </mxCell>
        <mxCell id="-Si1qEhgWz94pLlsSCn9-45" style="edgeStyle=orthogonalEdgeStyle;rounded=0;orthogonalLoop=1;jettySize=auto;html=1;entryX=0.5;entryY=0;entryDx=0;entryDy=0;entryPerimeter=0;" edge="1" parent="1" source="-Si1qEhgWz94pLlsSCn9-32" target="-Si1qEhgWz94pLlsSCn9-33">
          <mxGeometry relative="1" as="geometry" />
        </mxCell>
        <mxCell id="-Si1qEhgWz94pLlsSCn9-47" style="edgeStyle=orthogonalEdgeStyle;rounded=0;orthogonalLoop=1;jettySize=auto;html=1;entryX=0;entryY=0.5;entryDx=0;entryDy=0;entryPerimeter=0;" edge="1" parent="1" source="-Si1qEhgWz94pLlsSCn9-33" target="-Si1qEhgWz94pLlsSCn9-37">
          <mxGeometry relative="1" as="geometry" />
        </mxCell>
        <mxCell id="-Si1qEhgWz94pLlsSCn9-48" value="Comm Service" style="html=1;outlineConnect=0;whiteSpace=wrap;fillColor=#99ffff;shape=mxgraph.archimate3.application;appType=serv;archiType=rounded" vertex="1" parent="1">
          <mxGeometry x="1000" y="475" width="150" height="75" as="geometry" />
        </mxCell>
        <mxCell id="-Si1qEhgWz94pLlsSCn9-49" value="Comm Workflow" style="html=1;outlineConnect=0;whiteSpace=wrap;fillColor=#99ffff;shape=mxgraph.archimate3.application;appType=serv;archiType=rounded" vertex="1" parent="1">
          <mxGeometry x="1000" y="640" width="150" height="75" as="geometry" />
        </mxCell>
        <mxCell id="-Si1qEhgWz94pLlsSCn9-50" style="edgeStyle=orthogonalEdgeStyle;rounded=0;orthogonalLoop=1;jettySize=auto;html=1;entryX=0.5;entryY=0;entryDx=0;entryDy=0;entryPerimeter=0;" edge="1" parent="1" source="-Si1qEhgWz94pLlsSCn9-48" target="-Si1qEhgWz94pLlsSCn9-49">
          <mxGeometry relative="1" as="geometry" />
        </mxCell>
        <mxCell id="-Si1qEhgWz94pLlsSCn9-51" value="Notificatiion Service" style="html=1;outlineConnect=0;whiteSpace=wrap;fillColor=#99ffff;shape=mxgraph.archimate3.application;appType=serv;archiType=rounded" vertex="1" parent="1">
          <mxGeometry x="400" y="560" width="150" height="75" as="geometry" />
        </mxCell>
      </root>
    </mxGraphModel>
  </diagram>
</mxfile>
